<svg width="380" height="48" viewBox="0 0 380 48" fill="none" xmlns="http://www.w3.org/2000/svg">
<g clip-path="url(#clip0_1_362)">
<rect width="380" height="48" fill="white"/>
<path d="M15.7929 12.5952V12.5963C15.776 12.6253 12.2955 18.6292 7.95067 25.9595C3.59532 33.3077 0 39.1906 0 39.1906L12.3315 39.1365L12.3323 39.1364L12.3297 39.1459C18.3172 39.03 23.7182 35.0934 25.3119 29.1453C25.8102 27.286 25.8853 25.4143 25.5964 23.6255C24.8043 18.3582 20.9149 14.0745 15.7929 12.5952Z" fill="black"/>
<path d="M22.6077 8.80933V8.81037C22.5908 8.83945 19.1102 14.8433 14.7654 22.1736C10.4101 29.5218 6.81476 35.4047 6.81476 35.4047L19.1462 35.3506L19.147 35.3505L19.1445 35.36C25.132 35.2441 30.5329 31.3075 32.1267 25.3594C32.6249 23.5001 32.7001 21.6284 32.4111 19.8396C31.619 14.5724 27.7297 10.2886 22.6077 8.80933Z" fill="#10F2C5"/>
<path d="M48.6479 33H42.1854V14.7696H48.7014C50.5351 14.7696 52.1136 15.1346 53.437 15.8645C54.7603 16.5885 55.7781 17.63 56.4902 18.989C57.2083 20.3479 57.5673 21.974 57.5673 23.867C57.5673 25.766 57.2083 27.398 56.4902 28.7629C55.7781 30.1278 54.7544 31.1752 53.4192 31.9051C52.0899 32.635 50.4995 33 48.6479 33ZM46.0398 29.6975H48.4877C49.6271 29.6975 50.5855 29.4958 51.3629 29.0922C52.1462 28.6828 52.7338 28.0507 53.1254 27.1962C53.523 26.3357 53.7218 25.226 53.7218 23.867C53.7218 22.5199 53.523 21.4191 53.1254 20.5645C52.7338 19.71 52.1492 19.081 51.3718 18.6774C50.5944 18.2739 49.636 18.0721 48.4966 18.0721H46.0398V29.6975ZM65.3895 33.2225C64.351 33.2225 63.4104 32.9555 62.5677 32.4214C61.731 31.8814 61.0663 31.0891 60.5738 30.0447C60.0872 28.9943 59.8439 27.7066 59.8439 26.1814C59.8439 24.6147 60.0961 23.3122 60.6005 22.2736C61.1049 21.2292 61.7755 20.4488 62.6122 19.9325C63.4549 19.4103 64.3777 19.1492 65.3806 19.1492C66.1461 19.1492 66.7841 19.2798 67.2944 19.5409C67.8107 19.796 68.2261 20.1165 68.5407 20.5022C68.8611 20.882 69.1044 21.2559 69.2706 21.6238H69.3863V14.7696H73.1695V33H69.4308V30.8102H69.2706C69.0926 31.19 68.8403 31.5669 68.514 31.9407C68.1935 32.3086 67.7751 32.6143 67.2588 32.8576C66.7485 33.1009 66.1254 33.2225 65.3895 33.2225ZM66.5912 30.2049C67.2025 30.2049 67.7188 30.0388 68.1401 29.7064C68.5674 29.3682 68.8938 28.8964 69.1193 28.2911C69.3507 27.6858 69.4664 26.9766 69.4664 26.1636C69.4664 25.3506 69.3537 24.6444 69.1282 24.0451C68.9027 23.4457 68.5763 22.9828 68.149 22.6564C67.7217 22.33 67.2025 22.1668 66.5912 22.1668C65.9681 22.1668 65.4429 22.336 65.0157 22.6742C64.5884 23.0125 64.265 23.4813 64.0454 24.0807C63.8258 24.68 63.716 25.3743 63.716 26.1636C63.716 26.9588 63.8258 27.662 64.0454 28.2733C64.2709 28.8786 64.5943 29.3533 65.0157 29.6975C65.4429 30.0358 65.9681 30.2049 66.5912 30.2049ZM87.6634 23.2261L84.1918 23.4397C84.1324 23.143 84.0049 22.876 83.809 22.6386C83.6132 22.3953 83.355 22.2024 83.0346 22.06C82.7201 21.9116 82.3432 21.8375 81.9041 21.8375C81.3166 21.8375 80.8211 21.9621 80.4175 22.2113C80.014 22.4546 79.8122 22.781 79.8122 23.1905C79.8122 23.5169 79.9428 23.7928 80.2039 24.0183C80.465 24.2439 80.9131 24.4248 81.548 24.5613L84.0227 25.0598C85.352 25.3328 86.343 25.7719 86.9958 26.3773C87.6486 26.9826 87.9749 27.7778 87.9749 28.7629C87.9749 29.659 87.7109 30.4453 87.1827 31.1218C86.6605 31.7983 85.9424 32.3265 85.0285 32.7062C84.1206 33.0801 83.0732 33.267 81.8863 33.267C80.0763 33.267 78.6343 32.8902 77.5601 32.1366C76.492 31.377 75.8659 30.3444 75.6819 29.0388L79.4117 28.843C79.5244 29.3949 79.7974 29.8162 80.2306 30.107C80.6638 30.3918 81.2187 30.5343 81.8952 30.5343C82.5598 30.5343 83.0939 30.4067 83.4975 30.1515C83.9069 29.8904 84.1146 29.5551 84.1206 29.1456C84.1146 28.8014 83.9693 28.5196 83.6844 28.3C83.3996 28.0745 82.9604 27.9024 82.367 27.7837L79.9992 27.3119C78.6639 27.0449 77.6699 26.582 77.0172 25.9233C76.3703 25.2646 76.0469 24.4248 76.0469 23.4041C76.0469 22.5259 76.2843 21.7692 76.759 21.1342C77.2397 20.4993 77.9132 20.0097 78.7797 19.6655C79.652 19.3213 80.6727 19.1492 81.8418 19.1492C83.5687 19.1492 84.9277 19.5142 85.9187 20.2441C86.9157 20.974 87.4972 21.968 87.6634 23.2261ZM96.5227 38.4121C95.2942 38.4121 94.2409 38.243 93.3626 37.9047C92.4903 37.5724 91.7959 37.1184 91.2796 36.5428C90.7634 35.9672 90.4281 35.3203 90.2738 34.6023L93.781 34.1305C93.8878 34.4035 94.0569 34.6587 94.2884 34.896C94.5198 35.1334 94.8254 35.3233 95.2052 35.4657C95.591 35.6141 96.0598 35.6883 96.6117 35.6883C97.4365 35.6883 98.116 35.4865 98.6501 35.083C99.1901 34.6854 99.4602 34.0177 99.4602 33.0801V30.5788H99.2999C99.1338 30.9586 98.8845 31.3176 98.5522 31.6559C98.2199 31.9941 97.7926 32.2701 97.2704 32.4837C96.7482 32.6973 96.1251 32.8042 95.4011 32.8042C94.3744 32.8042 93.4398 32.5668 92.5971 32.092C91.7603 31.6114 91.0927 30.8785 90.5942 29.8934C90.1017 28.9023 89.8554 27.6502 89.8554 26.1369C89.8554 24.588 90.1076 23.2944 90.612 22.2558C91.1165 21.2173 91.787 20.4399 92.6238 19.9236C93.4665 19.4073 94.3893 19.1492 95.3922 19.1492C96.1577 19.1492 96.7986 19.2798 97.3149 19.5409C97.8312 19.796 98.2466 20.1165 98.5611 20.5022C98.8816 20.882 99.1278 21.2559 99.2999 21.6238H99.4424V19.3272H103.208V33.1335C103.208 34.2967 102.923 35.2699 102.353 36.0532C101.783 36.8366 100.994 37.4241 99.9854 37.8157C98.9824 38.2133 97.8282 38.4121 96.5227 38.4121ZM96.6028 29.9557C97.214 29.9557 97.7303 29.8043 98.1516 29.5017C98.5789 29.1931 98.9053 28.754 99.1308 28.1843C99.3622 27.6086 99.478 26.9202 99.478 26.1191C99.478 25.318 99.3652 24.6237 99.1397 24.0361C98.9142 23.4427 98.5878 22.9828 98.1605 22.6564C97.7333 22.33 97.214 22.1668 96.6028 22.1668C95.9797 22.1668 95.4545 22.336 95.0272 22.6742C94.5999 23.0065 94.2765 23.4694 94.0569 24.0629C93.8374 24.6563 93.7276 25.3417 93.7276 26.1191C93.7276 26.9084 93.8374 27.5908 94.0569 28.1665C94.2824 28.7362 94.6059 29.1783 95.0272 29.4928C95.4545 29.8014 95.9797 29.9557 96.6028 29.9557ZM110.017 25.0954V33H106.225V19.3272H109.839V21.7396H110C110.302 20.9443 110.81 20.3153 111.522 19.8524C112.234 19.3836 113.097 19.1492 114.112 19.1492C115.062 19.1492 115.889 19.3569 116.596 19.7723C117.302 20.1877 117.851 20.7812 118.242 21.5526C118.634 22.3182 118.83 23.232 118.83 24.2943V33H115.038V24.9708C115.044 24.1341 114.83 23.4813 114.397 23.0125C113.964 22.5377 113.367 22.3003 112.608 22.3003C112.097 22.3003 111.646 22.4101 111.255 22.6297C110.869 22.8493 110.566 23.1697 110.347 23.5911C110.133 24.0065 110.023 24.5079 110.017 25.0954ZM121.819 33V19.3272H125.495V21.7128H125.637C125.887 20.8642 126.305 20.2233 126.892 19.7901C127.48 19.351 128.157 19.1314 128.922 19.1314C129.112 19.1314 129.317 19.1433 129.536 19.167C129.756 19.1907 129.949 19.2234 130.115 19.2649V22.6297C129.937 22.5763 129.691 22.5288 129.376 22.4873C129.061 22.4457 128.774 22.425 128.513 22.425C127.955 22.425 127.456 22.5466 127.017 22.7899C126.584 23.0273 126.24 23.3596 125.985 23.7869C125.735 24.2142 125.611 24.7067 125.611 25.2646V33H121.819Z" fill="black"/>
<g clip-path="url(#clip1_1_362)">
<rect width="48" height="48" transform="translate(332)" fill="white"/>
<path d="M347 30H365V28H347V30ZM347 25H365V23H347V25ZM347 18V20H365V18H347Z" fill="black"/>
</g>
</g>
<defs>
<clipPath id="clip0_1_362">
<rect width="380" height="48" fill="white"/>
</clipPath>
<clipPath id="clip1_1_362">
<rect width="48" height="48" fill="white" transform="translate(332)"/>
</clipPath>
</defs>
</svg>
