<svg width="348" height="25" viewBox="0 0 348 25" fill="none" xmlns="http://www.w3.org/2000/svg">
<path d="M3.92383 15.3364H1.77734L1.79102 13.8599H3.92383C4.5026 13.8599 4.98796 13.7323 5.37988 13.4771C5.77181 13.2173 6.06803 12.8459 6.26855 12.3628C6.46908 11.8752 6.56934 11.2918 6.56934 10.6128V10.1001C6.56934 9.57601 6.51237 9.11344 6.39844 8.7124C6.28451 8.31136 6.11589 7.97412 5.89258 7.70068C5.67383 7.42725 5.40267 7.21989 5.0791 7.07861C4.75553 6.93734 4.38411 6.8667 3.96484 6.8667H1.73633V5.3833H3.96484C4.63021 5.3833 5.23633 5.49495 5.7832 5.71826C6.33464 5.94157 6.81087 6.26286 7.21191 6.68213C7.61751 7.09684 7.92741 7.59359 8.1416 8.17236C8.36035 8.75114 8.46973 9.39827 8.46973 10.1138V10.6128C8.46973 11.3237 8.36035 11.9709 8.1416 12.5542C7.92741 13.133 7.61751 13.6297 7.21191 14.0444C6.81087 14.4591 6.33236 14.7782 5.77637 15.0015C5.22038 15.2248 4.60286 15.3364 3.92383 15.3364ZM2.83008 5.3833V15.3364H0.950195V5.3833H2.83008ZM13.2549 15.4731C12.6943 15.4731 12.1908 15.382 11.7441 15.1997C11.2975 15.0174 10.917 14.7645 10.6025 14.4409C10.2926 14.1128 10.0534 13.7323 9.88477 13.2993C9.7207 12.8618 9.63867 12.3924 9.63867 11.8911V11.6177C9.63867 11.048 9.7207 10.5308 9.88477 10.0659C10.0488 9.59652 10.2812 9.1932 10.582 8.85596C10.8828 8.51872 11.2428 8.25895 11.6621 8.07666C12.0814 7.89437 12.5439 7.80322 13.0498 7.80322C13.5739 7.80322 14.0365 7.89209 14.4375 8.06982C14.8385 8.243 15.1735 8.4891 15.4424 8.80811C15.7113 9.12712 15.9141 9.50993 16.0508 9.95654C16.1875 10.3986 16.2559 10.8885 16.2559 11.4263V12.1851H10.459V10.9409H14.4785V10.8042C14.4694 10.5171 14.4147 10.255 14.3145 10.0181C14.2142 9.77653 14.0592 9.58512 13.8496 9.44385C13.64 9.29801 13.3688 9.2251 13.0361 9.2251C12.7673 9.2251 12.5326 9.28434 12.332 9.40283C12.1361 9.51676 11.972 9.68083 11.8398 9.89502C11.7122 10.1047 11.6165 10.3553 11.5527 10.647C11.4889 10.9386 11.457 11.2622 11.457 11.6177V11.8911C11.457 12.201 11.498 12.4881 11.5801 12.7524C11.6667 13.0168 11.792 13.2469 11.9561 13.4429C12.1247 13.6343 12.3252 13.7847 12.5576 13.894C12.7946 13.9989 13.0635 14.0513 13.3643 14.0513C13.7425 14.0513 14.0843 13.9784 14.3896 13.8325C14.6995 13.6821 14.9684 13.4611 15.1963 13.1694L16.1055 14.1128C15.9505 14.3407 15.7409 14.5594 15.4766 14.769C15.2168 14.9787 14.9023 15.1496 14.5332 15.2817C14.1641 15.4093 13.738 15.4731 13.2549 15.4731ZM21.5332 13.313C21.5332 13.158 21.4922 13.019 21.4102 12.896C21.3281 12.7729 21.1732 12.6613 20.9453 12.561C20.722 12.4562 20.3939 12.3582 19.9609 12.2671C19.5781 12.1851 19.2249 12.0825 18.9014 11.9595C18.5778 11.8364 18.2998 11.6883 18.0674 11.5151C17.835 11.3374 17.6527 11.13 17.5205 10.8931C17.3929 10.6515 17.3291 10.3735 17.3291 10.0591C17.3291 9.75374 17.3952 9.46663 17.5273 9.19775C17.6595 8.92432 17.8509 8.68506 18.1016 8.47998C18.3522 8.27035 18.6576 8.10628 19.0176 7.98779C19.3776 7.86475 19.7832 7.80322 20.2344 7.80322C20.8633 7.80322 21.4033 7.90576 21.8545 8.11084C22.3102 8.31592 22.6589 8.59847 22.9004 8.9585C23.1419 9.31396 23.2627 9.71501 23.2627 10.1616H21.458C21.458 9.96566 21.4124 9.78792 21.3213 9.62842C21.2347 9.46891 21.1003 9.34131 20.918 9.24561C20.7357 9.14535 20.5055 9.09521 20.2275 9.09521C19.9769 9.09521 19.765 9.13623 19.5918 9.21826C19.4232 9.30029 19.2956 9.40739 19.209 9.53955C19.1224 9.67171 19.0791 9.81755 19.0791 9.97705C19.0791 10.0955 19.1019 10.2026 19.1475 10.2983C19.1976 10.3895 19.2773 10.4738 19.3867 10.5513C19.4961 10.6287 19.6442 10.6994 19.8311 10.7632C20.0225 10.827 20.2572 10.8885 20.5352 10.9478C21.0866 11.0571 21.5674 11.203 21.9775 11.3853C22.3923 11.563 22.7158 11.8 22.9482 12.0962C23.1807 12.3924 23.2969 12.7707 23.2969 13.231C23.2969 13.5591 23.2262 13.8599 23.085 14.1333C22.9437 14.4022 22.7386 14.6369 22.4697 14.8374C22.2008 15.0379 21.8796 15.1951 21.5059 15.3091C21.1322 15.4185 20.7106 15.4731 20.2412 15.4731C19.5622 15.4731 18.988 15.3524 18.5186 15.1108C18.0492 14.8647 17.6937 14.5549 17.4521 14.1812C17.2106 13.8029 17.0898 13.411 17.0898 13.0054H18.8193C18.833 13.2925 18.9105 13.5226 19.0518 13.6958C19.193 13.869 19.3708 13.9943 19.585 14.0718C19.8037 14.1447 20.0339 14.1812 20.2754 14.1812C20.5488 14.1812 20.779 14.1447 20.9658 14.0718C21.1527 13.9943 21.2939 13.8918 21.3896 13.7642C21.4854 13.632 21.5332 13.4816 21.5332 13.313ZM26.585 7.93994V15.3364H24.7734V7.93994H26.585ZM24.6504 6.00537C24.6504 5.73649 24.7415 5.51318 24.9238 5.33545C25.1107 5.15771 25.3613 5.06885 25.6758 5.06885C25.9902 5.06885 26.2386 5.15771 26.4209 5.33545C26.6077 5.51318 26.7012 5.73649 26.7012 6.00537C26.7012 6.26969 26.6077 6.49072 26.4209 6.66846C26.2386 6.84619 25.9902 6.93506 25.6758 6.93506C25.3613 6.93506 25.1107 6.84619 24.9238 6.66846C24.7415 6.49072 24.6504 6.26969 24.6504 6.00537ZM33.0107 7.93994H34.6514V15.1108C34.6514 15.7808 34.5055 16.3481 34.2139 16.813C33.9268 17.2824 33.5234 17.6379 33.0039 17.8794C32.4844 18.1255 31.8805 18.2485 31.1924 18.2485C30.8962 18.2485 30.5749 18.2075 30.2285 18.1255C29.8867 18.0435 29.5563 17.9136 29.2373 17.7358C28.9229 17.5627 28.6608 17.3371 28.4512 17.0591L29.2646 15.9927C29.5107 16.2798 29.7887 16.4963 30.0986 16.6421C30.4085 16.7925 30.7435 16.8677 31.1035 16.8677C31.4681 16.8677 31.778 16.7993 32.0332 16.6626C32.293 16.5304 32.4912 16.3345 32.6279 16.0747C32.7692 15.8195 32.8398 15.505 32.8398 15.1313V9.62842L33.0107 7.93994ZM28.0137 11.7271V11.5835C28.0137 11.0184 28.082 10.5057 28.2188 10.0454C28.3555 9.58057 28.5514 9.1818 28.8066 8.84912C29.0664 8.51644 29.3786 8.25895 29.7432 8.07666C30.1123 7.89437 30.527 7.80322 30.9873 7.80322C31.4749 7.80322 31.8851 7.89209 32.2178 8.06982C32.555 8.24756 32.833 8.50049 33.0518 8.82861C33.2751 9.15674 33.4482 9.54639 33.5713 9.99756C33.6989 10.4442 33.7969 10.9364 33.8652 11.4741V11.8638C33.8014 12.3879 33.6989 12.8687 33.5576 13.3062C33.4209 13.7437 33.2386 14.1265 33.0107 14.4546C32.7829 14.7782 32.5003 15.0288 32.1631 15.2065C31.8258 15.3843 31.4294 15.4731 30.9736 15.4731C30.5179 15.4731 30.1077 15.3797 29.7432 15.1929C29.3786 15.006 29.0664 14.744 28.8066 14.4067C28.5514 14.0695 28.3555 13.673 28.2188 13.2173C28.082 12.7616 28.0137 12.2648 28.0137 11.7271ZM29.8184 11.5835V11.7271C29.8184 12.0461 29.8503 12.3446 29.9141 12.6226C29.9779 12.9006 30.0758 13.1466 30.208 13.3608C30.3402 13.5705 30.5065 13.7345 30.707 13.853C30.9076 13.9715 31.1468 14.0308 31.4248 14.0308C31.7985 14.0308 32.1038 13.9533 32.3408 13.7983C32.5824 13.6388 32.7646 13.4224 32.8877 13.1489C33.0153 12.8709 33.0973 12.5588 33.1338 12.2124V11.1392C33.111 10.8657 33.0609 10.6128 32.9834 10.3804C32.9105 10.1479 32.8079 9.94743 32.6758 9.77881C32.5436 9.61019 32.375 9.47803 32.1699 9.38232C31.9648 9.28662 31.721 9.23877 31.4385 9.23877C31.165 9.23877 30.9258 9.30029 30.7207 9.42334C30.5156 9.54183 30.347 9.70817 30.2148 9.92236C30.0827 10.1366 29.9824 10.3849 29.9141 10.6675C29.8503 10.95 29.8184 11.2554 29.8184 11.5835ZM38.0488 9.51904V15.3364H36.2441V7.93994H37.9395L38.0488 9.51904ZM37.7617 11.3716H37.2285C37.2331 10.8338 37.306 10.3462 37.4473 9.90869C37.5885 9.47119 37.7868 9.09521 38.042 8.78076C38.3018 8.46631 38.6094 8.22477 38.9648 8.05615C39.3203 7.88753 39.7168 7.80322 40.1543 7.80322C40.5098 7.80322 40.8311 7.85335 41.1182 7.95361C41.4053 8.05387 41.6514 8.21338 41.8564 8.43213C42.0661 8.65088 42.2256 8.93799 42.335 9.29346C42.4489 9.64437 42.5059 10.0773 42.5059 10.5923V15.3364H40.6875V10.5786C40.6875 10.2414 40.6374 9.97477 40.5371 9.77881C40.4414 9.58285 40.3001 9.44385 40.1133 9.36182C39.931 9.27979 39.7054 9.23877 39.4365 9.23877C39.1585 9.23877 38.9147 9.29574 38.7051 9.40967C38.5 9.51904 38.3268 9.67171 38.1855 9.86768C38.0488 10.0636 37.944 10.2892 37.8711 10.5444C37.7982 10.7996 37.7617 11.0754 37.7617 11.3716Z" fill="black"/>
<path d="M311.049 3.26348C311.348 2.34217 312.652 2.34217 312.951 3.26348L314.47 7.93724C314.604 8.34926 314.987 8.62822 315.421 8.62822H320.335C321.304 8.62822 321.706 9.86784 320.923 10.4372L316.947 13.3258C316.597 13.5804 316.45 14.0318 316.584 14.4438L318.102 19.1176C318.402 20.0389 317.347 20.805 316.564 20.2356L312.588 17.3471C312.237 17.0924 311.763 17.0924 311.412 17.3471L307.436 20.2356C306.653 20.805 305.598 20.0389 305.898 19.1176L307.416 14.4438C307.55 14.0318 307.403 13.5804 307.053 13.3258L303.077 10.4372C302.294 9.86784 302.696 8.62822 303.665 8.62822H308.579C309.013 8.62822 309.396 8.34926 309.53 7.93724L311.049 3.26348Z" fill="#D9D9D9"/>
<path d="M330.534 12.7563L329.092 12.4077L329.646 7.3833H335.121V8.88037H331.143L330.883 11.2046C331.024 11.118 331.229 11.0314 331.498 10.9448C331.771 10.8537 332.079 10.8081 332.421 10.8081C332.895 10.8081 333.319 10.8856 333.692 11.0405C334.066 11.1909 334.383 11.4097 334.643 11.6968C334.907 11.9839 335.105 12.3348 335.237 12.7495C335.374 13.1597 335.442 13.6245 335.442 14.144C335.442 14.5998 335.374 15.0282 335.237 15.4292C335.105 15.8257 334.902 16.1789 334.629 16.4888C334.355 16.7941 334.011 17.0356 333.597 17.2134C333.182 17.3866 332.694 17.4731 332.134 17.4731C331.71 17.4731 331.302 17.4116 330.91 17.2886C330.523 17.161 330.174 16.9764 329.864 16.7349C329.554 16.4888 329.306 16.188 329.119 15.8325C328.937 15.4771 328.837 15.0692 328.818 14.6089H330.603C330.634 14.9142 330.716 15.174 330.849 15.3882C330.981 15.6024 331.154 15.7664 331.368 15.8804C331.587 15.9943 331.84 16.0513 332.127 16.0513C332.387 16.0513 332.61 16.0034 332.797 15.9077C332.988 15.8075 333.146 15.6685 333.269 15.4907C333.392 15.313 333.483 15.1034 333.542 14.8618C333.601 14.6203 333.631 14.356 333.631 14.0688C333.631 13.7909 333.597 13.5379 333.528 13.3101C333.46 13.0776 333.355 12.8771 333.214 12.7085C333.073 12.5399 332.895 12.41 332.681 12.3188C332.471 12.2277 332.225 12.1821 331.942 12.1821C331.564 12.1821 331.272 12.2391 331.067 12.353C330.867 12.467 330.689 12.6014 330.534 12.7563ZM336.912 16.4546C336.912 16.1812 337.006 15.951 337.192 15.7642C337.379 15.5773 337.632 15.4839 337.951 15.4839C338.27 15.4839 338.523 15.5773 338.71 15.7642C338.897 15.951 338.99 16.1812 338.99 16.4546C338.99 16.7235 338.897 16.9513 338.71 17.1382C338.523 17.3205 338.27 17.4116 337.951 17.4116C337.632 17.4116 337.379 17.3205 337.192 17.1382C337.006 16.9513 336.912 16.7235 336.912 16.4546ZM347.31 11.5054V13.1802C347.31 13.9458 347.232 14.5998 347.077 15.1421C346.922 15.6844 346.699 16.1287 346.407 16.4751C346.116 16.8169 345.767 17.0698 345.361 17.2339C344.956 17.3934 344.505 17.4731 344.008 17.4731C343.611 17.4731 343.242 17.423 342.9 17.3228C342.559 17.2179 342.251 17.0584 341.978 16.8442C341.709 16.6255 341.476 16.3475 341.28 16.0103C341.089 15.673 340.941 15.2697 340.836 14.8003C340.736 14.3309 340.686 13.7909 340.686 13.1802V11.5054C340.686 10.7397 340.763 10.0881 340.918 9.55029C341.077 9.01253 341.303 8.57275 341.595 8.23096C341.886 7.88916 342.235 7.64079 342.641 7.48584C343.046 7.32633 343.497 7.24658 343.994 7.24658C344.395 7.24658 344.764 7.29671 345.102 7.39697C345.443 7.49723 345.749 7.65446 346.018 7.86865C346.291 8.07829 346.523 8.35173 346.715 8.68896C346.906 9.02165 347.052 9.42269 347.152 9.89209C347.257 10.3569 347.31 10.8947 347.31 11.5054ZM345.505 13.4263V11.2524C345.505 10.8696 345.482 10.5369 345.437 10.2544C345.396 9.96729 345.334 9.72347 345.252 9.52295C345.17 9.32243 345.067 9.16064 344.944 9.0376C344.821 8.90999 344.68 8.81657 344.521 8.75732C344.361 8.69808 344.186 8.66846 343.994 8.66846C343.757 8.66846 343.545 8.71631 343.358 8.81201C343.172 8.90316 343.014 9.04899 342.887 9.24951C342.759 9.45003 342.661 9.71663 342.593 10.0493C342.529 10.3774 342.497 10.7785 342.497 11.2524V13.4263C342.497 13.8091 342.518 14.144 342.559 14.4312C342.604 14.7183 342.668 14.9644 342.75 15.1694C342.837 15.3745 342.939 15.5431 343.058 15.6753C343.181 15.8029 343.322 15.8986 343.481 15.9624C343.641 16.0216 343.816 16.0513 344.008 16.0513C344.249 16.0513 344.461 16.0034 344.644 15.9077C344.83 15.812 344.988 15.6616 345.115 15.4565C345.243 15.2469 345.339 14.9757 345.402 14.6431C345.471 14.3058 345.505 13.9002 345.505 13.4263Z" fill="black"/>
</svg>
